<svg width="58" height="58" viewBox="0 0 58 58" fill="none" xmlns="http://www.w3.org/2000/svg">
<path d="M44 6C47.866 6 51 9.13401 51 13V44C51 47.866 47.866 51 44 51H13C9.13401 51 6 47.866 6 44V13C6 9.13401 9.13401 6 13 6H44ZM31.3721 28.8955C28.7739 26.4398 25.5029 26.8128 23.3154 27.5938C21.0789 28.3923 18.9404 29.9044 17.249 31.2949C15.4962 32.7359 13.924 34.2989 12.8076 35.4766C12.2441 36.071 11.784 36.5805 11.4619 36.9453C11.3006 37.128 11.1734 37.2756 11.084 37.3799C11.0393 37.4319 11.0038 37.4731 10.9785 37.5029C10.9659 37.5178 10.9559 37.53 10.9482 37.5391C10.9444 37.5436 10.941 37.5478 10.9385 37.5508C10.9373 37.5522 10.9364 37.5536 10.9355 37.5547L10.9336 37.5557C10.9331 37.5563 10.9423 37.5651 13.7344 39.9023L10.9326 37.5566C9.51464 39.2506 9.73875 41.7734 11.4326 43.1914C13.0736 44.565 15.4919 44.3983 16.9307 42.8467L17.0674 42.6924C17.0699 42.6894 17.0748 42.6833 17.082 42.6748C17.0967 42.6574 17.1211 42.6285 17.1543 42.5898C17.221 42.5121 17.3243 42.3928 17.459 42.2402C17.7288 41.9347 18.1245 41.4961 18.6133 40.9805C19.6018 39.9377 20.9237 38.631 22.3291 37.4756C23.0966 36.8447 23.815 36.3223 24.457 35.9199C24.2774 36.4501 24.1137 37.0581 24.0439 37.6924C23.8466 39.4883 24.3543 41.3904 25.917 42.9531C28.5654 45.6012 31.9257 45.2006 34.1494 44.373C36.3415 43.5572 38.416 42.0397 40.0459 40.6553C41.7367 39.2192 43.2467 37.667 44.3164 36.499C44.8566 35.9092 45.2971 35.4038 45.6055 35.042C45.7597 34.861 45.8811 34.7148 45.9668 34.6113C46.0096 34.5597 46.044 34.519 46.0684 34.4893C46.0805 34.4744 46.0903 34.4622 46.0977 34.4531C46.1013 34.4486 46.104 34.4444 46.1064 34.4414C46.1077 34.4399 46.1094 34.4386 46.1104 34.4375L46.1113 34.4355C46.1069 34.4309 45.9853 34.3321 43 31.9219L46.1123 34.4346C47.4999 32.7157 47.2315 30.1973 45.5127 28.8096C43.7942 27.4222 41.2766 27.6904 39.8887 29.4082L39.8877 29.4092C39.8854 29.412 39.8808 29.4175 39.874 29.4258C39.8601 29.4428 39.8373 29.4716 39.8057 29.5098C39.7424 29.5861 39.6445 29.7024 39.5166 29.8525C39.2599 30.1537 38.8832 30.5867 38.417 31.0957C37.474 32.1254 36.212 33.4153 34.8672 34.5576C34.2252 35.1029 33.6191 35.5638 33.0684 35.9365C33.2179 35.4674 33.3479 34.9468 33.4121 34.4082C33.6096 32.7514 33.2156 30.9721 31.8975 29.4443L31.6211 29.1416L31.3721 28.8955ZM39 15C36.2386 15 34 17.2386 34 20C34 22.7614 36.2386 25 39 25C41.7614 25 44 22.7614 44 20C44 17.2386 41.7614 15 39 15Z" fill="white"/>
</svg>
